<?xml version="1.0" encoding="utf-8"?>
<!-- Generator: Adobe Illustrator 19.0.0, SVG Export Plug-In . SVG Version: 6.00 Build 0)  -->
<svg version="1.1" id="Layer_1" xmlns="http://www.w3.org/2000/svg" xmlns:xlink="http://www.w3.org/1999/xlink" x="0px" y="0px"
	 viewBox="-67 156.6 823.2 248.4" style="enable-background:new -67 156.6 823.2 248.4;" xml:space="preserve">
<style type="text/css">
	.st0{fill:#FAFAFA;}
	.st1{enable-background:new    ;}
	.st2{fill:#FFFFFF;}
</style>
<g id="XMLID_48_">
	<path id="XMLID_105_" class="st0" d="M50.6,341.3H-67V169.8H50.6v34.3h-83.3v34.3h56.3v34.3h-56.3v34.2h83.3
		C50.6,306.9,50.6,341.3,50.6,341.3z"/>
	<path id="XMLID_103_" class="st0" d="M213.5,341.3H181V260c0-2.2-0.4-4.3-1.3-6.3c-0.8-2-2-3.7-3.5-5.3c-1.5-1.5-3.3-2.7-5.3-3.5
		s-4.1-1.3-6.3-1.3s-4.3,0.4-6.3,1.3c-2,0.8-3.7,2-5.1,3.5c-1.5,1.5-2.6,3.3-3.5,5.3c-0.8,2-1.3,4.1-1.3,6.3v81.3h-32.7V260
		c0-2.2-0.4-4.3-1.3-6.3c-0.8-2-2-3.7-3.5-5.3c-1.5-1.5-3.3-2.7-5.3-3.5s-4.1-1.3-6.3-1.3S95,244,93,244.9c-2,0.8-3.7,2-5.1,3.5
		c-1.5,1.5-2.6,3.3-3.5,5.3c-0.8,2-1.3,4.1-1.3,6.3v81.3H50.4V213.2h7.9l8.9,9.8c4.5-3.8,9.5-6.8,15-8.9s11.1-3.2,17-3.2
		c6,0,11.8,1.1,17.5,3.3c5.7,2.2,10.7,6.1,15,11.6c2-2.7,4.3-5,6.8-6.9c2.6-1.9,5.2-3.5,8.1-4.7c2.8-1.2,5.8-2.1,8.8-2.6
		s6-0.8,9-0.8c6.8,0,13.1,1.3,19.1,3.8c5.9,2.6,11.1,6,15.6,10.5c4.4,4.4,7.9,9.6,10.5,15.6s3.8,12.4,3.8,19.1v81.5H213.5z"/>
	<path id="XMLID_100_" class="st0" d="M249.6,390.1h-32.9V213.2h7.9l13,15.4c2.9-2.8,6.2-5.4,9.7-7.9s7.2-4.6,10.9-6.4
		c3.8-1.8,7.7-3.2,11.8-4.2c4.1-1,8.2-1.6,12.3-1.6c9,0,17.5,1.6,25.4,4.8s14.9,7.8,20.8,13.7s10.6,13,14.1,21.4
		c3.4,8.3,5.1,17.6,5.1,27.7c0,10.5-1.7,20-5.1,28.4s-8.1,15.6-14.1,21.4c-5.9,5.9-12.9,10.3-20.8,13.5c-7.9,3.1-16.4,4.7-25.4,4.7
		c-2.9,0-5.7-0.3-8.6-1c-2.8-0.6-5.6-1.5-8.4-2.6c-2.8-1.1-5.5-2.3-8.1-3.6c-2.7-1.4-5.2-2.8-7.7-4.2v57.4H249.6z M315.1,276.1
		c0-5.4-0.9-10.3-2.6-14.6s-4-8-7-10.9c-3-3-6.4-5.3-10.4-6.9c-4-1.6-8.2-2.4-12.7-2.4s-8.7,0.8-12.6,2.4c-3.9,1.6-7.4,3.9-10.3,6.9
		c-3,3-5.3,6.6-7,10.9c-1.7,4.3-2.6,9.2-2.6,14.6c0,5.2,0.9,9.9,2.6,14.2c1.7,4.3,4,8,7,11c2.9,3,6.4,5.4,10.3,7.1
		c3.9,1.7,8.2,2.5,12.6,2.5c4.5,0,8.7-0.8,12.7-2.5c4-1.7,7.5-4,10.4-7.1c2.9-3,5.3-6.7,7-11C314.2,286,315.1,281.3,315.1,276.1z"/>
	<path id="XMLID_97_" class="st0" d="M469.1,276.1c0,9.6-1.7,18.5-5.1,26.7c-3.4,8.3-8.1,15.4-14,21.4c-5.9,6-12.8,10.8-20.8,14.2
		c-7.9,3.5-16.4,5.2-25.5,5.2c-9,0-17.5-1.7-25.4-5.2s-14.9-8.2-20.8-14.2s-10.6-13.2-14.1-21.4c-3.4-8.3-5.1-17.2-5.1-26.7
		c0-9.7,1.7-18.7,5.1-27c3.4-8.3,8.1-15.5,14.1-21.5c5.9-6,12.9-10.7,20.8-14.2c7.9-3.4,16.4-5.1,25.4-5.1c9.1,0,17.6,1.6,25.5,4.8
		s14.9,7.8,20.8,13.8c5.9,5.9,10.6,13.1,14,21.4C467.4,256.6,469.1,265.9,469.1,276.1z M436.3,276.1c0-5.3-0.9-10-2.6-14.3
		c-1.7-4.3-4-7.9-7-11s-6.4-5.4-10.3-7.1c-3.9-1.6-8.2-2.5-12.6-2.5c-4.5,0-8.7,0.8-12.6,2.5c-3.9,1.6-7.4,4-10.3,7.1
		s-5.2,6.7-6.9,11c-1.7,4.3-2.5,9-2.5,14.3c0,4.9,0.8,9.5,2.5,13.8c1.7,4.2,4,7.9,6.9,11c2.9,3.1,6.3,5.6,10.3,7.4
		c3.9,1.8,8.2,2.7,12.6,2.7c4.5,0,8.7-0.8,12.6-2.5s7.4-4,10.3-7.1c2.9-3,5.3-6.7,7-11C435.4,286,436.3,281.3,436.3,276.1z"/>
	<path id="XMLID_55_" class="st0" d="M499.3,341.3h-32.7V213.2h7.9l10.8,15.2c5.3-4.8,11.2-8.5,17.9-11.1s13.6-3.9,20.8-3.9h28.8
		v32.5H524c-3.4,0-6.7,0.6-9.7,1.9s-5.7,3-7.9,5.3c-2.2,2.2-4,4.9-5.3,7.9s-1.9,6.3-1.9,9.7v70.6H499.3z"/>
	<path id="XMLID_52_" class="st0" d="M586,178.4c0,3-0.6,5.9-1.7,8.5c-1.2,2.6-2.7,4.9-4.7,6.9s-4.3,3.5-7,4.7
		c-2.7,1.2-5.5,1.7-8.6,1.7c-3,0-5.9-0.6-8.6-1.7c-2.7-1.2-5-2.7-6.9-4.7c-2-2-3.5-4.2-4.7-6.9c-1.2-2.6-1.7-5.5-1.7-8.5
		c0-2.9,0.6-5.8,1.7-8.4c1.2-2.7,2.7-5,4.7-6.9c2-2,4.3-3.5,6.9-4.7c2.7-1.2,5.6-1.8,8.6-1.8s5.9,0.6,8.6,1.7c2.7,1.2,5,2.7,7,4.7
		s3.6,4.3,4.7,6.9C585.4,172.6,586,175.4,586,178.4z M580.4,341.3h-32.9V213.2h32.9V341.3z"/>
	<path id="XMLID_49_" class="st0" d="M756.2,256.2c0,8.1-1.1,16-3.2,23.5c-2.1,7.5-5.1,14.6-8.9,21.2c-3.8,6.6-8.5,12.6-13.9,18
		c-5.4,5.4-11.4,10.1-17.9,13.9c-6.5,3.9-13.6,6.9-21.2,9c-7.6,2.1-15.4,3.2-23.6,3.2c-8.1,0-16-1.1-23.5-3.2
		c-7.5-2.1-14.6-5.1-21.2-9c-6.6-3.9-12.6-8.5-18-13.9c-5.4-5.4-10.1-11.4-13.9-18c-3.9-6.6-6.9-13.6-9-21.2
		c-2.1-7.5-3.2-15.4-3.2-23.5s1.1-16,3.2-23.6c2.1-7.6,5.1-14.6,9-21.2c3.9-6.5,8.5-12.5,13.9-17.9s11.4-10,18-13.9
		c6.6-3.9,13.6-6.8,21.2-8.9c7.5-2.1,15.4-3.2,23.5-3.2s16,1.1,23.6,3.2c7.6,2.1,14.6,5.1,21.2,8.9c6.5,3.8,12.5,8.5,17.9,13.9
		c5.4,5.4,10,11.4,13.9,17.9c3.8,6.5,6.8,13.6,8.9,21.2C755.2,240.3,756.2,248.1,756.2,256.2z M722.1,256.2c0-7.5-1.4-14.6-4.3-21.2
		c-2.9-6.7-6.8-12.4-11.7-17.3c-4.9-4.9-10.7-8.8-17.3-11.7c-6.7-2.9-13.7-4.3-21.2-4.3c-7.6,0-14.7,1.4-21.3,4.3
		s-12.4,6.8-17.3,11.7c-4.9,4.9-8.9,10.7-11.7,17.3c-2.9,6.7-4.3,13.7-4.3,21.2c0,7.5,1.4,14.5,4.3,21.1c2.9,6.6,6.8,12.3,11.7,17.3
		c4.9,4.9,10.7,8.9,17.3,11.7c6.6,2.9,13.7,4.3,21.3,4.3c7.5,0,14.6-1.4,21.2-4.3c6.7-2.9,12.4-6.8,17.3-11.7
		c4.9-4.9,8.8-10.7,11.7-17.3S722.1,263.7,722.1,256.2z"/>
</g>
<g id="XMLID_24_">
	<path id="XMLID_45_" class="st0" d="M460.2,404.3h-2.5l-3.9-5.5c-1,0.9-2,1.7-3.1,2.4c-1.1,0.8-2.2,1.4-3.4,2
		c-1.2,0.6-2.4,1-3.7,1.3c-1.3,0.3-2.5,0.5-3.8,0.5c-2.8,0-5.4-0.5-7.9-1.6s-4.6-2.5-6.5-4.4c-1.8-1.9-3.3-4.1-4.4-6.7
		c-1.1-2.6-1.6-5.4-1.6-8.4s0.5-5.8,1.6-8.4c1.1-2.6,2.5-4.8,4.4-6.7c1.8-1.9,4-3.4,6.5-4.4c2.5-1.1,5.1-1.6,7.9-1.6
		c0.9,0,1.8,0.1,2.8,0.2c1,0.1,1.9,0.4,2.8,0.7c0.9,0.3,1.8,0.8,2.5,1.3c0.8,0.5,1.5,1.2,2,2v-18.6h10.2v55.9H460.2z M450,384
		c0-1.4-0.3-2.7-0.8-4s-1.3-2.5-2.2-3.5s-2-1.8-3.2-2.4s-2.5-0.9-3.9-0.9s-2.7,0.2-3.9,0.7c-1.2,0.5-2.3,1.2-3.2,2.1
		c-0.9,0.9-1.6,2.1-2.1,3.4s-0.8,2.8-0.8,4.5c0,1.5,0.3,2.8,0.8,4.2c0.5,1.3,1.2,2.5,2.1,3.5s2,1.8,3.2,2.3c1.2,0.6,2.5,0.9,3.9,0.9
		s2.7-0.3,3.9-0.9c1.2-0.6,2.3-1.4,3.2-2.4s1.6-2.2,2.2-3.5C449.7,386.8,450,385.4,450,384z"/>
	<path id="XMLID_42_" class="st0" d="M500,404.3h-2.5l-3.9-5.5c-1,0.9-2,1.7-3.1,2.4c-1.1,0.8-2.2,1.4-3.4,2c-1.2,0.6-2.4,1-3.7,1.3
		s-2.5,0.5-3.8,0.5c-2.8,0-5.4-0.5-7.9-1.4s-4.6-2.3-6.5-4.1c-1.8-1.8-3.3-4-4.4-6.6c-1.1-2.6-1.6-5.6-1.6-8.9
		c0-3.1,0.5-5.9,1.6-8.5s2.5-4.8,4.4-6.7c1.8-1.9,4-3.3,6.5-4.3s5.1-1.5,7.9-1.5c1.3,0,2.6,0.2,3.8,0.5c1.3,0.3,2.5,0.8,3.7,1.3
		c1.2,0.6,2.3,1.2,3.4,2c1.1,0.8,2.1,1.6,3,2.5l3.9-4.7h2.5L500,404.3L500,404.3z M489.8,384c0-1.4-0.3-2.7-0.8-4s-1.3-2.5-2.2-3.5
		s-2-1.8-3.2-2.4s-2.5-0.9-3.9-0.9s-2.7,0.2-3.9,0.7s-2.3,1.2-3.2,2.1c-0.9,0.9-1.6,2.1-2.1,3.4s-0.8,2.9-0.8,4.6s0.3,3.3,0.8,4.6
		c0.5,1.4,1.2,2.5,2.1,3.4c0.9,0.9,2,1.6,3.2,2.1s2.5,0.7,3.9,0.7s2.7-0.3,3.9-0.9c1.2-0.6,2.3-1.4,3.2-2.4s1.6-2.2,2.2-3.5
		C489.6,386.8,489.8,385.4,489.8,384z"/>
	<path id="XMLID_40_" class="st0" d="M523.2,404.3H500v-10.1h23.2c0.7,0,1.3-0.2,1.8-0.7s0.7-1.1,0.7-1.8c0-0.7-0.2-1.2-0.7-1.4
		c-0.5-0.2-1.1-0.3-1.8-0.3h-10.5c-1.8,0-3.4-0.3-4.9-1s-2.9-1.6-4-2.7c-1.1-1.2-2-2.5-2.7-4s-1-3.2-1-4.9c0-1.7,0.3-3.4,1-4.9
		s1.6-2.9,2.7-4c1.1-1.1,2.5-2,4-2.7s3.2-1,4.9-1h20.5v10.1h-20.5c-0.7,0-1.3,0.2-1.8,0.7s-0.7,1.1-0.7,1.8s0.2,1.3,0.7,1.8
		s1.1,0.8,1.8,0.8h10.5c1.7,0,3.4,0.3,4.9,0.9c1.5,0.6,2.9,1.4,4,2.4s2,2.3,2.7,3.8s1,3.1,1,4.8c0,1.8-0.3,3.4-1,4.9s-1.6,2.9-2.7,4
		c-1.1,1.2-2.5,2.1-4,2.7C526.6,404,524.9,404.3,523.2,404.3z"/>
	<path id="XMLID_38_" class="st0" d="M584.5,372.4l-7.4,7.5c-0.4-1-0.9-2-1.5-2.8s-1.4-1.5-2.2-2.1s-1.7-1-2.6-1.3
		c-0.9-0.3-1.9-0.4-2.9-0.4c-1.4,0-2.7,0.3-3.9,0.9c-1.2,0.6-2.3,1.4-3.2,2.4s-1.6,2.2-2.1,3.7c-0.5,1.4-0.8,3-0.8,4.7
		c0,1.4,0.3,2.7,0.8,3.9c0.5,1.2,1.2,2.3,2.1,3.2s2,1.6,3.2,2.2c1.2,0.5,2.5,0.8,3.9,0.8c1,0,1.9-0.1,2.9-0.4
		c0.9-0.3,1.8-0.7,2.6-1.2s1.5-1.1,2.2-1.9c0.6-0.7,1.1-1.5,1.5-2.4l7.4,7.5c-0.9,1.3-2,2.5-3.3,3.6c-1.2,1.1-2.6,2-4,2.7
		s-2.9,1.3-4.5,1.7c-1.6,0.4-3.2,0.6-4.8,0.6c-2.8,0-5.4-0.5-7.9-1.6c-2.5-1.1-4.6-2.5-6.5-4.3c-1.8-1.8-3.3-4-4.4-6.4
		c-1.1-2.5-1.6-5.1-1.6-7.9c0-3,0.5-5.9,1.6-8.5c1.1-2.7,2.5-5,4.4-6.9c1.8-2,4-3.5,6.5-4.7c2.5-1.1,5.1-1.7,7.9-1.7
		c1.7,0,3.3,0.2,4.9,0.6c1.6,0.4,3.1,1,4.6,1.8c1.4,0.8,2.8,1.8,4,3C582.6,369.6,583.6,370.9,584.5,372.4z"/>
	<path id="XMLID_35_" class="st0" d="M621.6,404.3h-2.5l-3.9-5.5c-1,0.9-2,1.7-3.1,2.4c-1.1,0.7-2.2,1.4-3.4,2
		c-1.2,0.6-2.4,1-3.7,1.3s-2.5,0.5-3.8,0.5c-2.8,0-5.4-0.5-7.9-1.4s-4.6-2.3-6.5-4.1c-1.8-1.8-3.3-4-4.4-6.6
		c-1.1-2.6-1.6-5.6-1.6-8.9c0-3.1,0.5-5.9,1.6-8.5s2.5-4.8,4.4-6.7c1.8-1.9,4-3.3,6.5-4.3s5.1-1.5,7.9-1.5c1.3,0,2.6,0.2,3.8,0.5
		c1.3,0.3,2.5,0.8,3.7,1.3c1.2,0.6,2.3,1.2,3.4,2c1.1,0.8,2.1,1.6,3,2.5l3.9-4.7h2.5L621.6,404.3L621.6,404.3z M611.4,384
		c0-1.4-0.3-2.7-0.8-4s-1.3-2.5-2.2-3.5s-2-1.8-3.2-2.4s-2.5-0.9-3.9-0.9s-2.7,0.2-3.9,0.7s-2.3,1.2-3.2,2.1
		c-0.9,0.9-1.6,2.1-2.1,3.4s-0.8,2.9-0.8,4.6s0.3,3.3,0.8,4.6c0.5,1.4,1.2,2.5,2.1,3.4c0.9,0.9,2,1.6,3.2,2.1s2.5,0.7,3.9,0.7
		s2.7-0.3,3.9-0.9c1.2-0.6,2.3-1.4,3.2-2.4s1.6-2.2,2.2-3.5C611.1,386.8,611.4,385.4,611.4,384z"/>
	<path id="XMLID_33_" class="st0" d="M633.1,404.3H623v-39.8h2.5l3.3,4.7c1.6-1.5,3.5-2.6,5.6-3.4s4.2-1.2,6.5-1.2h9v10.1h-9
		c-1.1,0-2.1,0.2-3,0.6s-1.8,0.9-2.5,1.6s-1.2,1.5-1.6,2.5c-0.4,0.9-0.6,1.9-0.6,3v21.9H633.1z"/>
	<path id="XMLID_31_" class="st0" d="M658.2,404.3H648v-39.8h2.5l3.3,3.9c1.6-1.5,3.5-2.6,5.6-3.4s4.2-1.2,6.5-1.2
		c2.4,0,4.7,0.5,6.9,1.4c2.2,0.9,4,2.2,5.6,3.8s2.9,3.5,3.8,5.7c0.9,2.2,1.4,4.5,1.4,6.9v22.7h-10.1v-22.7c0-1-0.2-2-0.6-3
		c-0.4-0.9-0.9-1.7-1.6-2.4c-0.7-0.7-1.5-1.2-2.4-1.6S667,374,666,374c-1.1,0-2.1,0.2-3,0.6s-1.8,0.9-2.5,1.6s-1.2,1.5-1.6,2.4
		c-0.4,0.9-0.6,1.9-0.6,3v22.7H658.2z"/>
	<path id="XMLID_28_" class="st0" d="M700.2,394.6c0.4,0.1,0.8,0.2,1.2,0.2s0.8,0.1,1.2,0.1c1,0,1.9-0.1,2.9-0.4
		c0.9-0.3,1.8-0.7,2.6-1.2s1.5-1.1,2.2-1.9c0.6-0.7,1.1-1.5,1.5-2.4l7.4,7.5c-0.9,1.3-2,2.5-3.3,3.6c-1.2,1.1-2.6,2-4,2.7
		c-1.4,0.7-2.9,1.3-4.5,1.7s-3.2,0.6-4.8,0.6c-2.8,0-5.4-0.5-7.9-1.6c-2.5-1-4.6-2.5-6.5-4.3c-1.8-1.9-3.3-4.1-4.4-6.6
		c-1.1-2.6-1.6-5.4-1.6-8.5c0-3.1,0.5-6,1.6-8.6c1.1-2.6,2.5-4.8,4.4-6.7c1.8-1.8,4-3.3,6.5-4.3s5.1-1.5,7.9-1.5
		c1.7,0,3.3,0.2,4.9,0.6c1.6,0.4,3.1,1,4.5,1.7s2.8,1.7,4,2.7c1.2,1.1,2.3,2.3,3.3,3.6L700.2,394.6z M705.4,373.6
		c-0.5-0.2-0.9-0.3-1.4-0.3s-0.9-0.1-1.4-0.1c-1.4,0-2.7,0.3-3.9,0.8s-2.3,1.2-3.2,2.2c-0.9,0.9-1.6,2.1-2.1,3.4
		c-0.5,1.3-0.8,2.8-0.8,4.5c0,0.4,0,0.8,0.1,1.3c0,0.5,0.1,0.9,0.2,1.4c0.1,0.5,0.2,0.9,0.3,1.4c0.1,0.4,0.3,0.8,0.5,1.2
		L705.4,373.6z"/>
	<path id="XMLID_26_" class="st0" d="M739.8,404.3h-23.2v-10.1h23.2c0.7,0,1.3-0.2,1.8-0.7s0.7-1.1,0.7-1.8c0-0.7-0.2-1.2-0.7-1.4
		c-0.5-0.2-1.1-0.3-1.8-0.3h-10.5c-1.8,0-3.4-0.3-4.9-1s-2.9-1.6-4-2.7c-1.1-1.2-2-2.5-2.7-4s-1-3.2-1-4.9c0-1.7,0.3-3.4,1-4.9
		s1.6-2.9,2.7-4c1.1-1.1,2.5-2,4-2.7s3.2-1,4.9-1h20.5v10.1h-20.5c-0.7,0-1.3,0.2-1.8,0.7s-0.7,1.1-0.7,1.8s0.2,1.3,0.7,1.8
		s1.1,0.8,1.8,0.8h10.5c1.7,0,3.4,0.3,4.9,0.9c1.5,0.6,2.9,1.4,4,2.4s2,2.3,2.7,3.8s1,3.1,1,4.8c0,1.8-0.3,3.4-1,4.9s-1.6,2.9-2.7,4
		c-1.1,1.2-2.5,2.1-4,2.7C743.2,404,741.5,404.3,739.8,404.3z"/>
</g>
<g class="st1">
	<path class="st2" d="M437.4,197.5l13.9,0.1l-13.9,13.9l-7-7L437.4,197.5z"/>
</g>
</svg>
